<svg xmlns="http://www.w3.org/2000/svg" width="3873" height="3873" version="1.2"><style>.s0{fill:#f60}.s2{fill:#000}</style><g id="Master Layer 1"><g id="&lt;Group&gt;"><path id="&lt;Path&gt;" d="M726.2 0h2420.6C3546.2 0 3873 326.8 3873 726.2v2420.6c0 399.4-326.8 726.2-726.2 726.2H726.2C326.8 3873 0 3546.2 0 3146.8V726.2C0 326.8 326.8 0 726.2 0" class="s0"/><path d="M726.2 0h2420.6C3546.2 0 3873 326.8 3873 726.2v2420.6c0 399.4-326.8 726.2-726.2 726.2H726.2C326.8 3873 0 3546.2 0 3146.8V726.2C0 326.8 326.8 0 726.2 0" class="s0"/></g><path d="M726.2 0h2420.6C3546.2 0 3873 326.8 3873 726.2v2420.6c0 399.4-326.8 726.2-726.2 726.2H726.2C326.8 3873 0 3546.2 0 3146.8V726.2C0 326.8 326.8 0 726.2 0" class="s0"/><path d="M726.2 0h2420.6C3546.2 0 3873 326.8 3873 726.2v2420.6c0 399.4-326.8 726.2-726.2 726.2H726.2C326.8 3873 0 3546.2 0 3146.8V726.2C0 326.8 326.8 0 726.2 0" class="s0"/><path d="M726.2 0h2420.6C3546.2 0 3873 326.8 3873 726.2v2420.6c0 399.4-326.8 726.2-726.2 726.2H726.2C326.8 3873 0 3546.2 0 3146.8V726.2C0 326.8 326.8 0 726.2 0" class="s0"/><path d="M726.2 0h2420.6C3546.2 0 3873 326.8 3873 726.2v2420.6c0 399.4-326.8 726.2-726.2 726.2H726.2C326.8 3873 0 3546.2 0 3146.8V726.2C0 326.8 326.8 0 726.2 0" class="s0"/></g><g id="Layer 1"><path d="M746.5 678.3c8.8-18 21.6-34.4 38.5-47.5q6.8-5.3 14-9.6c21.5-13.2 46.7-20.9 73.6-20.9H3194q2.1 0 4.3.1c30.3.5 60.7 11 85.9 32.4 31.2 25.5 48.5 62.1 50.7 99.8q.3 4.4.3 8.9v2392c0 15.9-2.8 31.1-7.8 45.4-8.2 25.1-23.5 48.1-45.7 65.3l-7.6 5.9-8.6 4.3c-11.3 5.7-22.9 10.2-34.8 13.4-11.8 3.2-24.1 4.9-36.7 4.9H872.6c-27.8 0-53.8-8.2-75.7-22.2q-5.4-3.4-10.6-7.3l-3.2-2.4-3-2.7q-8.9-7.9-16.2-16.9c-20.3-24.4-32.5-55.7-32.5-89.7v-2390c0-22.6 5.5-44.1 15.1-63.2" style="fill:#cf5300"/><path d="M649.7 678.3c8.7-18 21.6-34.4 38.4-47.5q6.8-5.3 14.1-9.6c21.5-13.2 46.7-20.9 73.6-20.9h2321.4q2.1 0 4.2.1c30.4.5 60.8 11 86 32.4 31.2 25.5 48.5 62.1 50.7 99.8q.3 4.4.3 8.9v2392c0 15.9-2.8 31.1-7.8 45.4-8.2 25.1-23.5 48.1-45.7 65.3l-7.6 5.9-8.6 4.3c-11.3 5.7-22.9 10.2-34.9 13.4-11.7 3.2-24 4.9-36.6 4.9H775.8c-27.8 0-53.8-8.2-75.7-22.2q-5.5-3.4-10.6-7.3l-3.3-2.4-3-2.7q-8.8-7.9-16.2-16.9c-20.2-24.4-32.4-55.7-32.4-89.7v-2390c0-22.6 5.4-44.1 15.1-63.2" class="s0"/><path id="&lt;Compound Path&gt;" fill-rule="evenodd" d="M3097.2 3175.9H775.8c-24.2 0-44.4-20.2-44.4-44.4v-2390c0-24.2 20.2-44.3 44.4-44.3h2321.4c24.2 0 44.4 20.1 44.4 44.3v2392c0 22.2-20.2 42.4-44.4 42.4m-2279-86.8h2234.6V783.9H818.2z" class="s2"/><path d="M3097.2 3175.9c-12.1 0-26.2-6.1-34.3-16.2l-778.5-964c-10.1-12.1-12.1-30.3-6-46.4 8-16.2 22.1-24.2 38.3-24.2H2593c24.2 0 44.4 20.2 44.4 44.4s-20.2 44.3-44.4 44.3h-183.5l722 893.5c14.1 18.1 12.1 46.4-6.1 60.5-8 4-18.1 8.1-28.2 8.1" class="s2"/><path d="M2248.1 2476c-4 0-8.1 0-12.1-2-24.2-6.1-36.3-30.3-30.2-52.4l70.5-264.2c6.1-24.3 30.3-36.3 52.5-30.3 24.2 6 36.3 30.3 30.2 52.4l-68.5 264.3c-6.1 20.1-24.2 32.2-42.4 32.2M775.8 3175.9c-10.1 0-20.2-4.1-28.2-10.1-18.2-16.2-22.2-42.4-6.1-60.5l722.1-893.5H1280c-24.2 0-44.3-20.2-44.3-44.4s20.1-44.3 44.3-44.3h274.3c16.2 0 32.3 10.1 38.3 24.2 8.1 16.1 6.1 32.3-6 46.4l-776.5 966c-10.1 10.1-22.2 16.2-34.3 16.2" class="s2"/><path d="M1624.9 2476c-20.2 0-36.3-12.1-42.3-32.3l-70.6-264.2c-6.1-24.2 8-46.4 30.2-52.4 24.2-6 46.4 8.1 52.5 30.3l70.5 264.2c6.1 24.2-8 46.3-30.2 52.4-2 2-6.1 2-10.1 2m968.1-728.1h-274.3c-16.1 0-32.3-10-38.3-24.2-6.1-14.1-6.1-32.2 6-46.3l778.5-964.1c16.2-18.1 42.4-22.2 60.5-6.1 18.2 14.2 22.2 42.4 6.1 60.6l-722 893.4H2593c24.2 0 44.4 20.2 44.4 44.4s-20.2 42.3-44.4 42.3" class="s2"/><path d="M2318.7 1747.9c-20.2 0-36.3-12.1-42.4-32.2l-70.5-264.2c-6.1-24.2 8-46.4 30.2-52.5 24.2-6 46.4 8.1 52.4 30.3l70.6 264.2c6.1 24.2-8 46.4-30.2 52.4-2 2-6.1 2-10.1 2m-764.4 0H1280c-24.2 0-44.3-20.1-44.3-44.3s20.1-44.4 44.3-44.4h183.6L741.5 767.8c-14.1-18.2-12.1-46.4 6.1-60.6 18.1-14.1 46.4-12 60.5 6.1l778.5 964.1c10.1 12.1 12.1 30.2 6 46.3-6 14.2-22.2 24.2-38.3 24.2" class="s2"/><path d="M1554.3 1747.9c-4 0-8.1 0-12.1-2-24.2-6-36.3-30.2-30.2-52.4l70.6-264.2c6-24.2 30.2-36.3 52.4-30.3 24.2 6.1 36.3 30.3 30.2 52.5l-70.5 264.2c-4.1 20.1-22.2 32.2-40.4 32.2" class="s2"/><path d="M1554.3 1747.9H1280c-24.2 0-44.3-20.1-44.3-44.3s20.1-44.4 44.3-44.4h183.6L818.2 862.4v2148l645.4-798.6H1280c-24.2 0-44.3-20.2-44.3-44.4s20.1-44.3 44.3-44.3h274.3c16.2 0 32.3 10.1 38.3 24.2 3.5 6.9 5.1 13.8 4.9 20.5l67.7 253.8c6.1 24.2-8 46.3-30.2 52.4-2 2-6.1 2-10.1 2-20.2 0-36.3-12.1-42.3-32.3l-49.2-183.9-666.6 829.3h2139.1l-668.2-827.4-47.2 182.1c-6.1 20.1-24.2 32.2-42.4 32.2-4 0-8.1 0-12.1-2-24.2-6.1-36.3-30.3-30.2-52.4l69.7-261c.5-3.8 1.5-7.6 2.9-11.3 8-16.2 22.1-24.2 38.3-24.2H2593c24.2 0 44.4 20.2 44.4 44.4s-20.2 44.3-44.4 44.3h-183.5l643.3 796.2V865.1l-643.3 796.1H2593c24.2 0 44.4 20.2 44.4 44.4s-20.2 42.3-44.4 42.3h-274.3c-20.2 0-36.3-12.1-42.4-32.2l-70.5-264.2c-6.1-24.2 8-46.4 30.2-52.5 24.2-6 46.4 8.1 52.4 30.3l49.3 184.5 670.2-829.9H865.1l668.7 828 48.8-182.6c6-24.2 30.2-36.3 52.4-30.3 24.2 6.1 36.3 30.3 30.2 52.5l-69.7 260.9c-.5 3.8-1.5 7.6-2.9 11.3-3 7-8.4 13-15.1 17.3q-.1 0-.1.1c-6.9 4.4-15 6.8-23.1 6.8" style="fill:#f3a766"/></g></svg>